<svg xmlns="http://www.w3.org/2000/svg" width="30" height="30" viewBox="0 0 30 30"><g transform="translate(-160 -881.012)"><circle cx="15" cy="15" r="15" transform="translate(160 881.012)" fill="#a4a4a4"/><path d="M4.759,9.231A4.8,4.8,0,0,1,1.394,7.879a4.518,4.518,0,0,1,0-6.527A4.866,4.866,0,0,1,7.97,1.209l-1.4,1.332A2.855,2.855,0,0,0,4.759,1.9a2.763,2.763,0,0,0-2.8,2.717,2.763,2.763,0,0,0,2.8,2.717A2.816,2.816,0,0,0,7.378,5.579H4.7V3.652H9.414a4.519,4.519,0,0,1-1.29,4.228A4.8,4.8,0,0,1,4.759,9.231Zm8.585-2.658h-1.2V4.966H10.482V3.8h1.656V2.19h1.2V3.8H15V4.966H13.344V6.572Z" transform="translate(167.692 891.397)" fill="#fff"/></g></svg>