<svg xmlns="http://www.w3.org/2000/svg" xmlns:xlink="http://www.w3.org/1999/xlink" width="30" height="30" viewBox="0 0 30 30"><defs><filter id="a" x="0" y="0" width="30" height="30" filterUnits="userSpaceOnUse"><feOffset dy="4" input="SourceAlpha"/><feGaussianBlur stdDeviation="4" result="b"/><feFlood flood-opacity="0.102"/><feComposite operator="in" in2="b"/><feComposite in="SourceGraphic"/></filter></defs><g transform="translate(-274 -880)"><g transform="matrix(1, 0, 0, 1, 262.07, 873)" filter="url(#a)"><ellipse cx="15" cy="15" rx="15" ry="15" transform="translate(12 8)" fill="#a4a4a4"/></g><path d="M9.181,13.077H3.9A3.9,3.9,0,0,1,0,9.181V3.9A3.9,3.9,0,0,1,3.9,0H9.181a3.9,3.9,0,0,1,3.9,3.9V9.181A3.9,3.9,0,0,1,9.181,13.077ZM3.9,1.315A2.583,2.583,0,0,0,1.315,3.9V9.181a2.583,2.583,0,0,0,2.58,2.58H9.181a2.583,2.583,0,0,0,2.58-2.58V3.9a2.583,2.583,0,0,0-2.58-2.58ZM6.539,9.92A3.382,3.382,0,1,1,9.921,6.539,3.386,3.386,0,0,1,6.539,9.92Zm0-5.448A2.067,2.067,0,1,0,8.605,6.539,2.069,2.069,0,0,0,6.539,4.472Zm3.389-.48a.811.811,0,1,1,.811-.81A.811.811,0,0,1,9.927,3.992Z" transform="translate(282.532 889.462)" fill="#fff"/></g></svg>