<svg xmlns="http://www.w3.org/2000/svg" width="13.076" height="13.077" viewBox="0 0 13.076 13.077"><path d="M9.181,13.077H3.9A3.9,3.9,0,0,1,0,9.181V3.9A3.9,3.9,0,0,1,3.9,0H9.181a3.9,3.9,0,0,1,3.9,3.9V9.181A3.9,3.9,0,0,1,9.181,13.077ZM3.9,1.315A2.583,2.583,0,0,0,1.315,3.9V9.181a2.583,2.583,0,0,0,2.58,2.58H9.181a2.583,2.583,0,0,0,2.58-2.58V3.9a2.583,2.583,0,0,0-2.58-2.58ZM6.539,9.92A3.382,3.382,0,1,1,9.921,6.539,3.386,3.386,0,0,1,6.539,9.92Zm0-5.448A2.067,2.067,0,1,0,8.605,6.539,2.069,2.069,0,0,0,6.539,4.472Zm3.389-.48a.811.811,0,1,1,.811-.81A.811.811,0,0,1,9.927,3.992Z" transform="translate(0.001 0)" fill="#fff"/></svg>