<svg xmlns="http://www.w3.org/2000/svg" width="30" height="30" viewBox="0 0 30 30"><g transform="translate(-216.926 -881.037)"><ellipse cx="15" cy="15" rx="15" ry="15" transform="translate(216.926 881.037)" fill="#a4a4a4"/><g transform="translate(224.9 889.999)"><path d="M10.662,12.192a.344.344,0,0,1-.211-.073L7.375,9.763a.487.487,0,0,0-.3-.1.494.494,0,0,0-.321.121L5.05,11.248a.344.344,0,0,1-.227.086.362.362,0,0,1-.345-.267L3.294,7.05.234,5.846a.388.388,0,0,1,0-.711L12.786.026A.344.344,0,0,1,12.917,0a.353.353,0,0,1,.272.133.391.391,0,0,1,.08.326l-2.253,11.43A.368.368,0,0,1,10.662,12.192Zm-.34-9.684a.1.1,0,0,0-.056.018L4.287,6.409a.653.653,0,0,0-.263.714l.646,2.4a.153.153,0,0,0,.148.118A.154.154,0,0,0,4.972,9.5L5.14,8.182a1.1,1.1,0,0,1,.317-.645L10.392,2.7a.109.109,0,0,0,.026-.122A.107.107,0,0,0,10.322,2.508Z" transform="translate(0 0)" fill="#fff"/><path d="M.286,3.9,6.265.018c.107-.07.218.084.126.174L1.456,5.029a1.1,1.1,0,0,0-.317.645L.971,6.988a.153.153,0,0,1-.3.023l-.646-2.4A.651.651,0,0,1,.286,3.9Z" transform="translate(4.001 2.508)" fill="#eaeaea"/></g></g></svg>